<svg width="100" height="100" viewBox="0 0 100 100" fill="none" xmlns="http://www.w3.org/2000/svg">
  <rect width="100" height="100" rx="20" fill="#1A1A2E"/>
  <path d="M50 15C30.67 15 15 30.67 15 50C15 69.33 30.67 85 50 85C69.33 85 85 69.33 85 50C85 30.67 69.33 15 50 15ZM50 75C36.19 75 25 63.81 25 50C25 36.19 36.19 25 50 25C63.81 25 75 36.19 75 50C75 63.81 63.81 75 50 75Z" fill="#F64E60"/>
  <path d="M70 50C70 61.05 61.05 70 50 70V80C66.57 80 80 66.57 80 50H70Z" fill="#F1FA8C"/>
  <path d="M50 30V40C38.95 40 30 48.95 30 60H20C20 43.43 33.43 30 50 30Z" fill="#F1FA8C"/>
  <path d="M55 50L65 45V65L55 60V50Z" fill="#F64E60"/>
  <path d="M45 50L35 45V65L45 60V50Z" fill="#F64E60"/>
</svg>